<?xml version="1.0" encoding="UTF-8" standalone="no"?>
<!-- Created with Inkscape (http://www.inkscape.org/) -->

<svg
   xmlns:dc="http://purl.org/dc/elements/1.1/"
   xmlns:cc="http://creativecommons.org/ns#"
   xmlns:rdf="http://www.w3.org/1999/02/22-rdf-syntax-ns#"
   xmlns:svg="http://www.w3.org/2000/svg"
   xmlns="http://www.w3.org/2000/svg"
   xmlns:sodipodi="http://sodipodi.sourceforge.net/DTD/sodipodi-0.dtd"
   xmlns:inkscape="http://www.inkscape.org/namespaces/inkscape"
   width="210mm"
   height="297mm"
   viewBox="0 0 210 297"
   version="1.1"
   id="svg1633"
   inkscape:version="0.92.2 (unknown)"
   sodipodi:docname="Fossee_logo.svg">
  <defs
     id="defs1627" />
  <sodipodi:namedview
     id="base"
     pagecolor="#ffffff"
     bordercolor="#666666"
     borderopacity="1.0"
     inkscape:pageopacity="0.0"
     inkscape:pageshadow="2"
     inkscape:zoom="0.24748737"
     inkscape:cx="-839.44187"
     inkscape:cy="716.21769"
     inkscape:document-units="mm"
     inkscape:current-layer="layer1"
     showgrid="false"
     inkscape:window-width="1865"
     inkscape:window-height="1056"
     inkscape:window-x="55"
     inkscape:window-y="24"
     inkscape:window-maximized="1" />
  <metadata
     id="metadata1630">
    <rdf:RDF>
      <cc:Work
         rdf:about="">
        <dc:format>image/svg+xml</dc:format>
        <dc:type
           rdf:resource="http://purl.org/dc/dcmitype/StillImage" />
        <dc:title></dc:title>
      </cc:Work>
    </rdf:RDF>
  </metadata>
  <g
     inkscape:label="Layer 1"
     inkscape:groupmode="layer"
     id="layer1">
    <g
       id="g5630"
       transform="matrix(0.70731608,0,0,0.70731608,-861.45877,81.883503)"
       style="stroke-width:0.37406662">
      <g
         id="g12209"
         transform="matrix(0.22662348,0,0,0.22623224,857.2006,505.99456)"
         style="fill:#ff6600;fill-opacity:1;stroke-width:0.37406662">
        <path
           id="path12211"
           d="m 2159.1667,-1850.1509 v 18.6 h -9.0999 v 15.9334 h 9.0999 v 22.3 c 0,5.0284 0.5727,8.6501 1.7333,10.8666 1.1607,2.2165 3.148,3.9088 5.9668,5.0667 1.9895,0.7939 4.2464,1.3694 6.7666,1.7333 2.5202,0.397 5.3496,0.6 8.4999,0.6 1.9565,0 3.9776,-0.1015 6.0668,-0.3 2.0891,-0.1654 4.2448,-0.4361 6.4666,-0.8 v -15.6333 h -3.6333 c -2.4872,0 -4.1377,-0.609 -4.9666,-1.8 -0.8292,-1.1909 -1.2334,-4.5761 -1.2334,-10.2 v -11.8333 h 9.1333 v -15.9334 h -9.1333 v -18.6 z m 162.0333,0 v 18.6 h -9.1 v 15.9334 h 9.1 v 22.3 c 0,5.0284 0.5728,8.6501 1.7333,10.8666 1.1607,2.2165 3.1481,3.9088 5.9667,5.0667 1.9897,0.7939 4.2464,1.3694 6.7668,1.7333 2.5201,0.397 5.3496,0.6 8.4999,0.6 1.9565,0 3.9775,-0.1015 6.0667,-0.3 2.089,-0.1654 4.2448,-0.4361 6.4666,-0.8 v -15.6333 h -3.6333 c -2.4871,0 -4.1376,-0.609 -4.9667,-1.8 -0.829,-1.1909 -1.2333,-4.5761 -1.2332,-10.2 v -11.8333 H 2356 v -15.9334 h -9.1332 v -18.6 z m -571.0667,0.1 v 74 H 1774.4 l 0.2001,-5.6 c 3.0838,2.3488 6.4861,4.109 10.2333,5.3 3.7471,1.1578 7.8565,1.7333 12.3333,1.7333 9.5171,0 17.1294,-2.7079 22.8,-8.1333 5.6704,-5.4585 8.5,-12.702 8.5001,-21.7334 -10e-5,-9.1636 -2.8634,-16.4409 -8.6001,-21.8333 -5.7037,-5.3923 -13.3837,-8.0999 -23.0667,-8.1 -4.1119,10e-5 -7.9181,0.5079 -11.3999,1.5333 -3.4489,0.9925 -6.7162,2.5157 -9.8001,4.5667 v -21.7333 z m 239.9335,15.1333 c -12.9328,10e-5 -22.9369,2.6403 -30,7.9333 -7.0634,5.2932 -10.6001,12.8071 -10.6001,22.5 0,9.66 3.5367,17.1403 10.6001,22.4334 7.0631,5.2931 17.0672,7.9333 30,7.9333 11.6393,0 20.9363,-1.6582 27.9332,-4.9333 6.9969,-3.2751 11.4767,-8.048 13.4001,-14.3667 H 2003.7 c -0.8953,1.4556 -2.3773,2.5391 -4.4332,3.3 -2.0561,0.7609 -4.6495,1.1667 -7.7334,1.1667 -4.6757,0 -8.2802,-0.8462 -10.8667,-2.5334 -2.5866,-1.6871 -3.9,-4.09 -3.9,-7.1666 H 2031.9 v -0.9667 c -1e-4,-11.5786 -3.5703,-20.3452 -10.6666,-26.3 -7.0634,-5.9878 -17.4382,-8.9999 -31.1666,-9 z m 527.0666,0 c -12.9328,10e-5 -22.9034,2.6403 -29.9667,7.9333 -7.0632,5.2932 -10.6,12.8071 -10.6,22.5 0,9.66 3.5368,17.1403 10.6,22.4334 7.0633,5.2931 17.0339,7.9333 29.9667,7.9333 11.6394,0 20.9696,-1.6582 27.9666,-4.9333 6.997,-3.2751 11.4766,-8.048 13.4,-14.3667 h -27.7333 c -0.8953,1.4556 -2.3441,2.5391 -4.4,3.3 -2.056,0.7609 -4.6494,1.1667 -7.7333,1.1667 -4.6758,0 -8.3135,-0.8462 -10.9001,-2.5334 -2.5865,-1.6871 -3.8666,-4.09 -3.8666,-7.1666 h 55.1 v -0.9667 c -10e-5,-11.5786 -3.5369,-20.3452 -10.6333,-26.3 -7.0633,-5.9878 -17.4715,-8.9999 -31.2,-9 z m 207.7999,0.5 c -3.316,10e-5 -6.2804,0.5076 -8.9333,1.5 -2.6528,0.9594 -4.9434,2.3813 -6.8666,4.3 l -0.3,-4.3667 h -25.2667 v 56.9334 h 25.9 v -29.4 c 0,-3.9367 0.4713,-6.7123 1.3667,-8.3334 0.9284,-1.6209 2.4445,-2.4333 4.6,-2.4333 2.0227,0 3.5384,0.7108 4.5333,2.1333 0.9948,1.3895 1.5,3.5219 1.5,6.4 v 0.4 H 2744 v -4.9666 c 0,-7.675 -1.5494,-13.2602 -4.6333,-16.8 -3.0509,-3.5728 -7.8675,-5.3666 -14.4334,-5.3667 z m -733.4999,13.7333 c 4.1782,10e-5 7.5128,0.8798 10,2.6 2.487,1.7203 3.9351,4.1573 4.2999,7.3 h -30.2666 c 0.6632,-3.2089 2.3808,-5.6794 5.1,-7.3666 2.7523,-1.6872 6.3568,-2.5333 10.8667,-2.5334 z m 527.0999,0 c 4.1783,10e-5 7.513,0.8798 10,2.6 2.4871,1.7203 3.9353,4.1573 4.3001,7.3 h -30.2667 c 0.6632,-3.2089 2.3474,-5.6794 5.0667,-7.3666 2.7523,-1.6872 6.3901,-2.5333 10.8999,-2.5334 z m -729.8999,3.6 c 3.9792,10e-5 7.1455,1.1174 9.4999,3.4 2.3877,2.2827 3.5666,5.3626 3.5667,9.2 -10e-5,3.8045 -1.179,6.851 -3.5667,9.1667 -2.3544,2.2827 -5.5207,3.4333 -9.4999,3.4333 -3.9131,0 -7.0792,-1.1506 -9.4667,-3.4333 -2.3876,-2.3157 -3.5667,-5.3622 -3.5667,-9.1667 0,-3.8374 1.1791,-6.9173 3.5667,-9.2 2.3875,-2.2826 5.5536,-3.3999 9.4667,-3.4 z m 691.1667,59.0926 v 11.6333 H 2494.5 v -11.6333 z m -579.7001,1.5667 v 15.9 c -2.4099,-2.8279 -5.4535,-4.2333 -9.1667,-4.2333 -4.4507,0 -8.0283,1.759 -10.7332,5.3 -2.705,3.541 -4.0668,8.342 -4.0668,14.3666 0,6.4427 1.3197,11.3399 4,14.7334 2.705,3.3688 6.2389,5.0666 10.5667,5.0666 4.6968,0 8.059,-1.9305 10.1,-5.7666 v 5 h 13.8001 v -50.3667 z m 487.0667,0.4 -13.9667,0.2333 -0.2333,12.2 h -5.6 v 9.5667 h 5.6 v 11.8333 l -0.033,4.4 c 0,4.2542 1.052,7.3574 3.1668,9.3 2.1393,1.9427 5.4753,2.9 10,2.9 2.8033,0 5.6649,-0.2677 8.5666,-0.8333 v -10.5 c -1.623,0.418 -3.0196,0.6333 -4.1999,0.6333 -0.7624,0 -1.5203,-0.1557 -2.2334,-0.5 -0.7132,-0.3688 -1.0667,-1.5065 -1.0667,-3.4 v -13.8333 h 7.5 v -9.5667 h -7.5 v -12.4333 z m -615.2667,11.6667 c -6.1968,0 -11.1534,1.9393 -14.8666,5.8 -3.7132,3.8607 -5.5667,8.5934 -5.5667,14.2 0,5.4099 1.871,9.936 5.6333,13.6 3.7624,3.6393 8.8136,5.4666 15.1334,5.4666 5.6803,0 10.1802,-1.2846 13.4999,-3.8666 3.3443,-2.6066 5.4219,-5.7781 6.2334,-9.4667 l -13.7333,-0.9 c -0.5657,3.0738 -2.4366,4.6 -5.6333,4.6 -2.2132,0 -3.7132,-0.5688 -4.5001,-1.7 -0.7868,-1.1557 -1.2174,-2.906 -1.2666,-5.2667 h 25.1333 c 0.024,-0.9098 0.033,-1.6169 0.033,-2.1333 0,-6.2705 -1.8536,-11.2273 -5.5666,-14.8667 -3.6887,-3.6393 -8.5334,-5.4666 -14.5334,-5.4666 z m 372.4667,0 c -5.6804,0 -10.3011,1.8623 -13.8667,5.6 -3.541,3.7131 -5.3333,8.4458 -5.3333,14.2 0,5.6312 1.8011,10.2519 5.3666,13.8666 3.5902,3.5902 8.2371,5.4 13.9667,5.4 5.1148,0 9.2262,-1.3792 12.3,-4.1333 3.0984,-2.7541 4.9431,-6.3229 5.5334,-10.7 l -12.5667,-1.0667 c -0.4918,3.7132 -2.0355,5.5667 -4.6667,5.5667 -1.795,0 -3.0622,-0.7246 -3.8,-2.2 -0.7131,-1.4754 -1.0666,-3.7595 -1.0666,-6.8333 0,-3.5656 0.3535,-6.0738 1.0666,-7.5 0.7378,-1.4508 1.893,-2.1667 3.4667,-2.1667 2.459,0 3.9589,1.9743 4.5001,5.9333 l 12.8665,-1.0666 c -0.4672,-4.3033 -2.2945,-7.8634 -5.4666,-10.6667 -3.1722,-2.8279 -7.259,-4.2333 -12.3,-4.2333 z m 121.2,0 c -11.1394,0 -17.6819,3.9223 -19.6,11.7666 l 13.4334,1.2667 c 0.3934,-2.7295 2.2732,-4.1 5.6666,-4.1 1.4508,0 2.5623,0.259 3.3,0.8 0.7623,0.541 1.1333,1.6525 1.1333,3.3 v 0.8333 c -9.1722,0.4919 -15.5518,1.9743 -19.1666,4.4334 -3.5903,2.4344 -5.4001,5.6409 -5.4001,9.6 0,2.9262 1.1115,5.5043 3.3001,7.7666 2.2131,2.2623 5.5404,3.4 9.9667,3.4 5.3852,0 9.3775,-1.9917 12.0333,-6 0,1.8935 0.189,3.635 0.5333,5.2334 h 14 c -0.7623,-2.0164 -1.1333,-4.4475 -1.1333,-7.3 v -15 c 0,-4.0574 -0.2504,-6.7738 -0.7666,-8.2 -0.492,-1.4262 -1.4913,-2.788 -2.9668,-4.0667 -1.4754,-1.2787 -3.4672,-2.2098 -6,-2.8 -2.5328,-0.6147 -5.3086,-0.9333 -8.3333,-0.9333 z m 335.5667,0 c -6.1231,0 -11.0972,1.8623 -14.9333,5.6 -3.8115,3.7377 -5.7001,8.4267 -5.7001,14.0333 0,5.2132 1.8361,9.7481 5.5,13.6333 3.664,3.8607 8.5787,5.8 14.8,5.8 6.2951,0 11.3464,-1.8622 15.1334,-5.6 3.8114,-3.7623 5.7333,-8.46 5.7334,-14.0666 -10e-5,-5.5574 -1.9045,-10.1781 -5.6668,-13.8667 -3.7377,-3.6885 -8.6945,-5.5333 -14.8666,-5.5333 z m 130.9,0 c -5.1886,0 -8.7836,2.0426 -10.8,6.1 v -5.3334 H 2707.6 v 37.5334 h 14.7 v -22.5334 c 0,-3.7377 1.353,-5.6333 4.0334,-5.6333 0.9098,0 1.6431,0.2924 2.2333,0.8333 0.6147,0.541 0.9333,1.7574 0.9333,3.7 v 23.6334 h 14.7334 v -24.0334 c 0,-4.1065 -0.4219,-6.9857 -1.2333,-8.6333 -0.8116,-1.6721 -2.1733,-3.0005 -4.0668,-4.0333 -1.8688,-1.0574 -4.1704,-1.6 -6.8999,-1.6 z m -729.4,0.7666 v 26.8334 c 0,3.6885 0.9907,6.5081 2.9333,8.5 1.9673,1.9672 4.7344,2.9666 8.3,2.9666 5.7787,0 9.6415,-2.3103 11.6333,-6.9333 v 6.1667 h 13.6334 v -37.5334 h -14.5333 v 22.5 c -1e-4,1.623 -0.4132,2.8902 -1.2,3.8 -0.787,0.8853 -1.8126,1.3334 -3.0667,1.3334 -1.1803,0 -1.9487,-0.2765 -2.3667,-0.8667 -0.3935,-0.6148 -0.6,-1.6912 -0.6,-3.1667 v -23.6 z m 477.1667,0 v 37.5334 H 2494.5 v -37.5334 z m -707.7667,7.9 c 1.4754,10e-5 2.7164,0.4481 3.6999,1.3334 1.0082,0.8607 1.5088,2.5672 1.5335,5.1 H 1766.8 c 0,-4.2787 1.7415,-6.4333 5.2334,-6.4334 z m 123.9,0.4334 c 2.7787,0 4.1666,1.6978 4.1666,5.0666 v 9.3 c 0,1.9673 -0.4306,3.441 -1.2666,4.4 -0.8115,0.9591 -1.7864,1.4334 -2.9667,1.4334 -3.0984,0 -4.6667,-3.0595 -4.6667,-9.1334 0,-3.0983 0.3099,-5.6939 0.9,-7.8333 0.6148,-2.1393 1.8907,-3.2333 3.8334,-3.2333 z m 705.1333,0.1333 c 1.8442,0 3.1202,0.7508 3.8333,2.3 0.7131,1.5492 1.0667,4.0836 1.0667,7.6 0,2.582 -0.2503,5.0814 -0.7667,7.4667 -0.4917,2.3606 -1.8797,3.5333 -4.1666,3.5333 -1.623,0 -2.8553,-0.6896 -3.6667,-2.0667 -0.8115,-1.4016 -1.2,-4.2633 -1.2,-8.5666 0,-3.664 0.3797,-6.2683 1.1666,-7.8667 0.7869,-1.5983 2.0366,-2.4 3.7334,-2.4 z m -331.5667,11.5 v 1.8 c 0,3.1968 -0.5601,5.2656 -1.6666,6.2 -1.1066,0.9344 -2.4263,1.4 -4,1.4 -2.4836,0 -3.7334,-1.1377 -3.7334,-3.4 0,-3.3443 3.1294,-5.336 9.4,-6 z"
           style="font-style:normal;font-variant:normal;font-weight:normal;font-stretch:expanded;font-size:11.94842243px;line-height:125%;font-family:'Swis721 BlkEx BT';-inkscape-font-specification:'Swis721 BlkEx BT Expanded';text-align:start;writing-mode:lr-tb;text-anchor:start;fill:#808080;fill-opacity:1;stroke-width:0.3990044"
           sodipodi:nodetypes="ccccccsccsccccscccccccccccccsccsccccsccccccccccccscscscccccsssssccsssccccccsssssccsssccccccccccccccsccccccccscccccsccccccssscssccccccccssscsccccccccccccccsccscccccccccsscscccscccsccccsscscccscscscccccccsccccscsccccccsccccscssscccccccccscccccccccccscccccccsccccccccccccccccccsscccsscscsscccsssc"
           inkscape:connector-curvature="0" />
        <path
           inkscape:connector-curvature="0"
           id="path12213"
           d="m 1750.2334,-2072.8842 v 64.7333 H 1774 c 0,-13.1311 0.5562,-22.8466 1.7,-29.1 1.1466,-6.3569 4.0169,-12.4012 8.6,-18.1333 4.583,-5.8359 10.7254,-10.2442 18.4334,-13.2667 5.344,-2.1676 11.9994,-3.5655 19.9,-4.2333 z m 99.0666,0 c 8.4587,0.5178 16.693,1.4652 24.7,2.8333 v 40.8 c -9.895,-1.3553 -17.3048,-2.0333 -22.1999,-2.0333 -4.8957,3e-4 -9.3713,0.9862 -13.4334,2.9667 -4.0624,1.9796 -6.1,6.8216 -6.1,14.5333 v 5.6333 H 1872.9 v 40.4667 h -40.1666 v 117.4333 H 1933.5 c -12.6403,-3.9927 -23.4668,-10.7117 -32.4666,-20.2 -15.5198,-16.4664 -23.2667,-35.7391 -23.2667,-57.8333 0,-23.7614 8.0553,-43.559 24.2,-59.4 16.2488,-15.841 37.364,-23.7664 63.3001,-23.7667 26.1435,3e-4 47.134,7.8343 62.9666,23.4667 15.9362,15.6326 23.8999,35.2136 23.8999,58.7667 0,23.7616 -8.0887,43.6216 -24.2333,59.5666 -9.19,9.0758 -20.1205,15.5226 -32.8,19.4 h 107.6334 c -23.2388,-6.7595 -38.4533,-21.3866 -45.6,-43.9333 l 49.2333,-6.7333 c 2.8121,11.4639 13.9552,17.2 33.4334,17.2 16.1445,0 24.1999,-3.1469 24.1999,-9.4 0,-2.7096 -1.5418,-4.7743 -4.6667,-6.2334 -3.1249,-1.5634 -10.5343,-3.1366 -22.1999,-4.7 -32.2898,-4.4811 -52.4463,-11.4495 -60.4667,-20.9333 -8.0203,-9.5881 -12.0333,-20.2274 -12.0333,-31.9 0,-16.2578 6.7926,-29.3949 20.3333,-39.4 13.5407,-10.1089 31.289,-15.1664 53.2667,-15.1667 38.539,3e-4 63.109,13.9076 73.7333,41.7334 l -47.1667,8.9333 c -4.3744,-9.3795 -13.6053,-14.0667 -27.6666,-14.0667 -6.6664,0 -11.6667,0.9255 -15.0001,2.8 -3.2286,1.7716 -4.8333,3.5285 -4.8333,5.3 0,5.2111 5.0007,8.4205 15,9.5667 26.0398,2.9182 43.6962,5.8777 52.9668,8.9 9.2697,3.0222 17.171,8.5422 23.7333,16.5667 2.0983,2.5665 3.8692,5.2938 5.2999,8.2 -33.8725,10.716 -54.4333,21.6 -54.4333,21.6 0,0 25.5956,-9.8157 55.7667,-18.5334 2.1445,5.3947 3.2332,11.316 3.2334,17.8 -5e-4,17.4042 -7.3179,31.2201 -21.9001,41.4334 -6.7743,4.7787 -14.7488,8.4207 -23.9333,10.9666 h 94.1 c -23.2359,-6.7578 -38.4522,-21.3826 -45.6,-43.9333 l 49.2333,-6.7333 c 2.8124,11.4639 13.9552,17.2 33.4334,17.2 16.1444,0 24.1999,-3.1469 24.1999,-9.4 0,-2.7096 -1.5754,-4.7743 -4.7,-6.2334 -3.1248,-1.5634 -10.501,-3.1366 -22.1666,-4.7 -32.2898,-4.4811 -52.4464,-11.4495 -60.4667,-20.9333 -0.5013,-0.5993 -0.9967,-1.1925 -1.4667,-1.8 7.5712,-1.7997 15.0971,-3.4259 22.2667,-4.6 36.1306,-5.917 62.4162,-7.0229 104.5333,-7.5333 2.4882,2.1196 4.8109,4.5232 7.0001,7.2 6.5619,8.0249 9.8333,17.707 9.8333,29.0666 0,17.4042 -7.2845,31.2201 -21.8667,41.4334 -6.7703,4.7759 -14.7477,8.4209 -23.9333,10.9666 h 110.2999 c -12.4827,-3.788 -23.247,-10.0368 -32.2666,-18.7666 -15.9363,-15.5284 -23.9333,-34.7721 -23.9333,-57.7 0,-4.2679 0.2588,-8.4052 0.7666,-12.4334 1.8943,-0.017 3.5416,-0.049 5.5001,-0.067 58.0251,-0.5196 115.5845,2.9887 165.3999,9.8333 0.042,1.3395 0.066,2.6976 0.067,4.0667 -4e-4,2.1877 -0.06,5.2106 -0.1667,9.0666 h -106.4 c 0.2133,10.0049 1.9666,17.4686 5.2999,22.3667 3.3334,4.794 9.6923,7.2 19.0667,7.2 13.5405,0 21.5042,-6.5396 23.9,-19.5667 l 58.1334,3.9334 c -3.4377,15.6323 -12.2344,28.9527 -26.4,40 -6.8384,5.3215 -14.8597,9.3283 -24.0667,12.0666 h 117.6 c -12.492,-3.788 -23.2469,-10.0368 -32.2667,-18.7666 -15.9362,-15.5284 -23.8999,-34.7721 -23.8999,-57.7 0,-0.3714 0.03,-0.7305 0.033,-1.1 24.0322,3.6249 46.0602,8.0758 65.1667,13.2333 0.371,9.1566 2.1242,16.0827 5.2665,20.7 3.3328,4.794 9.6588,7.2 19.0334,7.2 12.9802,0 20.8591,-6.0269 23.6,-18 33.4979,5.0119 57.2333,4.7333 57.2333,4.7333 v -2.4333 -13.8667 -0.2333 c 0,0 -44.9786,0.6631 -109.4333,-8.7667 -20.2976,-2.9695 -40.4639,-5.3405 -60.7,-7.3333 1.2069,-21.2036 8.9878,-39.3066 23.4001,-54.3 15.7281,-16.3618 36.7182,-24.5664 62.9666,-24.5667 25.4147,3e-4 45.9091,7.7093 61.5333,23.1334 11.9478,11.7171 19.3597,26.6477 22.2333,44.8 v -129.3667 h -96.9666 c -18.7365,1.4292 -89.5702,6.817 -153.6,11.1667 -69.7782,4.7037 -96.0227,8.8745 -144.0333,16.6 -51.2937,8.2536 -96.0416,21.2781 -116.3667,27.6666 l 7.0334,4.1334 -15.6,2.9333 -3.4667,15.4667 -7.6,-13.9 -15.7667,1.4666 10.8667,-11.5 -6.2667,-14.5666 14.2999,6.8 11.9001,-10.5 -1.3667,10.6333 c 20.8949,-5.5133 72.0094,-18.3996 119.3667,-25.5333 61.1478,-9.2112 93.9478,-11.5036 153.5,-14.9 52.0238,-2.9671 99.9836,-4.8964 129.7999,-5.9667 H 1849.3 Z m 453.3334,61.4333 c 38.5388,3e-4 63.109,13.9076 73.7333,41.7334 l -47.1667,8.9333 c -4.3748,-9.3795 -13.6051,-14.0667 -27.6666,-14.0667 -6.6664,0 -11.6667,0.9255 -15.0001,2.8 -3.2288,1.7716 -4.8333,3.5285 -4.8333,5.3 0,5.2111 5.0007,8.4205 15,9.5667 26.0399,2.9182 43.6962,5.8777 52.9668,8.9 2.753,0.8976 5.3874,2.0282 7.8999,3.3667 -33.9253,0.2225 -65.9239,2.8472 -99.6333,9.9333 -7.2119,1.516 -14.1235,3.1592 -20.7,4.8667 -5.4602,-8.2138 -8.2,-17.1362 -8.2,-26.7667 0,-16.2578 6.7593,-29.3949 20.2999,-39.4 13.5409,-10.1089 31.3224,-15.1664 53.3001,-15.1667 z m 175.4666,0 c 25.4149,3e-4 45.9426,7.7093 61.5668,23.1334 14.0435,13.7725 21.7944,32.0034 23.2999,54.6666 -40.3257,-3.6922 -81.0607,-6.0222 -123.7667,-8.5333 -16.0824,-0.9457 -31.3488,-1.7056 -46.1,-2.2 3.0144,-16.2045 10.3656,-30.3619 22.0334,-42.5 15.7278,-16.3618 36.7183,-24.5664 62.9666,-24.5667 z m 198.6667,36.3334 c -14.015,3.0753 -32.2701,9.8539 -37.7,27.6 h 44.3667 c -0.7597,-14.5592 -6.6667,-27.6 -6.6667,-27.6 z m -182.1333,0.4 c -14.7907,4.2664 -27.6284,9.8418 -38.1001,27.2 H 2500.9 c -0.7512,-14.5606 -6.2666,-27.2 -6.2666,-27.2 z m -529.7001,2.3666 c -7.187,0 -12.4335,3.3594 -15.7666,10.1334 -3.3331,6.7744 -5,17.9383 -5,33.4666 0,18.2382 1.728,30.3262 5.1666,36.2667 3.4374,5.8361 8.5922,8.7667 15.4667,8.7667 9.687,0 15.5501,-4.9952 17.6334,-15 2.1865,-10.1089 3.2999,-20.6571 3.2999,-31.6 0,-14.903 -1.5111,-25.6345 -4.5333,-32.2 -3.0204,-6.5656 -8.4547,-9.8334 -16.2667,-9.8334 z m -214.6999,4.6667 v 117.4333 H 1774 v -117.4333 z m 994.1666,69.9667 c -4.0582,13.6533 -12.4511,25.4575 -25.2,35.4 -6.8398,5.3228 -14.8649,9.3283 -24.0666,12.0666 H 2744.4 Z"
           style="color:#000000;font-style:normal;font-variant:normal;font-weight:normal;font-stretch:normal;font-size:12px;line-height:125%;font-family:'Franklin Gothic Heavy';-inkscape-font-specification:'Franklin Gothic Heavy,';text-align:start;writing-mode:lr-tb;text-anchor:start;display:inline;overflow:visible;visibility:visible;fill:#ff6600;fill-opacity:1;fill-rule:nonzero;stroke:none;stroke-width:0.06109573;marker:none;enable-background:accumulate"
           sodipodi:nodetypes="cccccccccccssccccccccscccscccccsscccsccccscscsscccscccccssccccscssccccscscscccsccccccscccscccccscsccccccscccccccccccssccccccscscscscscccccscsccccccccccsscscscccccccccccc" />
        <rect
           style="color:#000000;display:inline;overflow:visible;visibility:visible;fill:#ff6600;fill-opacity:1;stroke:none;stroke-width:2.96302176;marker:none;enable-background:accumulate"
           id="rect12215"
           width="994.539"
           height="8.9171782"
           x="1749.9973"
           y="-1771.6335" />
      </g>
    </g>
  </g>
</svg>
